# xmcd
#
# Track frame offsets:
#	150
#	19300
#	45823
#	65085
#	97065
#	119230
#	138077
#	157075
#	174460
#	197889
#	229455
#	274189
#
# Disc length: 4348 seconds
#
# Revision: 1
# Processed by: cddbd v1.5.1PL0 Copyright (c) Steve Scherf et al.
# Submitted via: audiograbber 1.83.01
#
DISCID=b410fa0c
DTITLE=Van Morrison - A Madman Looking for a Fight
DYEAR=1900
DGENRE=
TTITLE0=Satisfied
TTITLE1=Fire in the Belly
TTITLE2=I've Been Working
TTITLE3=In the Afternoon
TTITLE4=Troubadors
TTITLE5=Snow in San Anselmo
TTITLE6=A Change is Gonna Come
TTITLE7=Cleaning Windows
TTITLE8=Vanlose Stairway
TTITLE9=Summertime in England
TTITLE10=It's a Man's World
TTITLE11=See Me Through
EXTD=
EXTT0=
EXTT1=
EXTT2=
EXTT3=
EXTT4=
EXTT5=
EXTT6=
EXTT7=
EXTT8=
EXTT9=
EXTT10=
EXTT11=
PLAYORDER=
